<svg width="154.981" height="40" viewBox="0 0 154.981 40" fill="none" xmlns="http://www.w3.org/2000/svg">
<g id="full-logo">
<path d="M0 8C0 5.05448 2.39401 2.66667 5.34717 2.66667H29.4094C32.3626 2.66667 34.7566 5.05448 34.7566 8V32C34.7566 34.9455 32.3626 37.3333 29.4094 37.3333H5.34717C2.39401 37.3333 0 34.9455 0 32V8Z" fill="#FAA089"/>
<path d="M29.4094 0C32.1901 0 34.6397 1.41182 36.0786 3.55556H36.1082C37.5471 1.41182 39.9967 0 42.7774 0H43.6686V2.66667H42.7774C39.8242 2.66667 37.4302 5.05448 37.4302 8V18.6667H40.1038V21.3333H37.4302V32C37.4302 34.9455 39.8242 37.3333 42.7774 37.3333H43.6686V40H42.7774C39.9966 40 37.5471 38.5882 36.1082 36.4444H36.0786C34.6397 38.5882 32.1902 40 29.4094 40H28.5182V37.3333H29.4094C32.3626 37.3333 34.7566 34.9455 34.7566 32V21.3333H32.083V18.6667H34.7566V8C34.7566 5.05448 32.3626 2.66667 29.4094 2.66667H28.5182V0H29.4094Z" fill="#EEF0FF"/>
<path d="M5.34717 15.7733V13.5777L12.4501 9.98291V12.2431L7.83239 14.6755L12.4501 17.1079V19.3682L5.34717 15.7733Z" fill="#EEF0FF"/>
<path d="M14.0282 21.3333L18.3995 8H20.5327L16.1613 21.3333H14.0282Z" fill="#EEF0FF"/>
<path d="M29.4094 13.5777V15.7733L22.3065 19.3682V17.1079L26.9242 14.6755L22.3065 12.2431V9.98291L29.4094 13.5777Z" fill="#EEF0FF"/>
<path d="M54.3629 2.64533H65.7666V5.184H57.2325V10.0124H64.2694V12.4764H57.2325V17.5289H66.0661V20.0676H54.3629V2.64533Z" fill="#EEF0FF"/>
<path d="M79.0787 8.56889C80.0269 9.51467 80.526 11.008 80.526 13.0489V20.0676H77.8061V13.1982C77.8061 12.0036 77.5316 11.0827 77.0325 10.4356C76.5085 9.81333 75.7599 9.48978 74.7618 9.48978C73.6888 9.48978 72.8403 9.86311 72.2415 10.6098C71.6426 11.3564 71.3431 12.352 71.3431 13.6462V20.0676H68.6482V7.32444H70.9938L71.2932 8.992C72.2415 7.79733 73.6139 7.17511 75.3856 7.17511C76.8828 7.17511 78.1305 7.648 79.0787 8.56889Z" fill="#EEF0FF"/>
<path d="M90.5378 7.32444V9.83822H89.34C88.2171 9.83822 87.4186 10.2116 86.9196 10.9333C86.4205 11.6551 86.171 12.576 86.171 13.6711V20.0676H83.476V7.32444H85.8715L86.171 9.24089C86.5203 8.64356 86.9944 8.19555 87.5933 7.84711C88.1672 7.49867 88.9408 7.32444 89.9389 7.32444H90.5378Z" fill="#EEF0FF"/>
<path d="M95.2681 2.69511C95.5675 2.99378 95.7422 3.392 95.7422 3.84C95.7422 4.31289 95.5675 4.71111 95.2681 5.00978C94.9437 5.30844 94.5444 5.45778 94.0952 5.45778C93.6211 5.45778 93.2219 5.30844 92.9224 5.00978C92.598 4.71111 92.4483 4.31289 92.4483 3.84C92.4483 3.392 92.598 2.99378 92.9224 2.69511C93.2219 2.39644 93.6211 2.22222 94.0952 2.22222C94.5444 2.22222 94.9437 2.39644 95.2681 2.69511ZM92.7478 7.32444H95.4427V20.0676H92.7478V7.32444Z" fill="#EEF0FF"/>
<path d="M108.44 18.9724C107.392 19.8187 106.07 20.2169 104.473 20.2169C103.2 20.2169 102.077 19.968 101.129 19.4204C100.156 18.8729 99.407 18.1013 98.883 17.1058C98.359 16.1102 98.1094 14.9653 98.1094 13.6711C98.1094 12.3769 98.359 11.2569 98.908 10.2613C99.432 9.29067 100.181 8.544 101.154 7.99644C102.127 7.44889 103.25 7.17511 104.547 7.17511C106.144 7.17511 107.442 7.59822 108.465 8.44444C109.463 9.29067 110.112 10.4107 110.362 11.8542H107.592C107.392 11.1324 107.043 10.56 106.494 10.112C105.945 9.68889 105.271 9.46489 104.473 9.46489C103.375 9.46489 102.501 9.86311 101.852 10.6347C101.204 11.4311 100.879 12.4267 100.879 13.6711C100.879 14.9404 101.204 15.9609 101.852 16.7573C102.501 17.5538 103.375 17.9271 104.473 17.9271C105.296 17.9271 105.995 17.728 106.544 17.28C107.093 16.832 107.442 16.2347 107.617 15.488H110.362C110.112 16.9813 109.463 18.1262 108.44 18.9724Z" fill="#EEF0FF"/>
<path d="M123.452 8.56889C124.4 9.51467 124.899 11.008 124.899 13.0489V20.0676H122.204V13.1982C122.204 12.0036 121.93 11.0827 121.406 10.4356C120.882 9.81333 120.133 9.48978 119.135 9.48978C118.062 9.48978 117.214 9.86311 116.615 10.6098C116.016 11.3564 115.716 12.352 115.716 13.6213V20.0676H113.021V2.64533H115.716V9.16622C116.665 7.84711 118.012 7.17511 119.734 7.17511C121.256 7.17511 122.504 7.648 123.452 8.56889Z" fill="#EEF0FF"/>
<path d="M128.149 10.2862C128.673 9.29067 129.396 8.544 130.345 7.99644C131.293 7.44889 132.366 7.17511 133.589 7.17511C134.811 7.17511 135.884 7.424 136.833 7.92178C137.781 8.41955 138.504 9.14133 139.053 10.0373C139.602 10.9582 139.877 12.0284 139.902 13.248C139.902 13.5964 139.877 13.92 139.827 14.2684H130.195V14.4178C130.245 15.5378 130.594 16.4089 131.243 17.056C131.867 17.7031 132.715 18.0267 133.763 18.0267C134.587 18.0267 135.285 17.8524 135.859 17.4542C136.408 17.056 136.783 16.5084 136.982 15.7867H139.677C139.428 17.0809 138.804 18.1511 137.781 18.9724C136.758 19.8187 135.485 20.2169 133.963 20.2169C132.615 20.2169 131.468 19.968 130.469 19.4204C129.471 18.8729 128.723 18.1262 128.174 17.1307C127.625 16.16 127.375 15.0151 127.375 13.7209C127.375 12.4267 127.625 11.2818 128.149 10.2862ZM137.157 12.3022C137.032 11.3813 136.658 10.6596 136.034 10.1369C135.41 9.61422 134.637 9.34044 133.688 9.34044C132.79 9.34044 132.041 9.61422 131.393 10.1618C130.744 10.7093 130.395 11.4062 130.295 12.3022H137.157Z" fill="#EEF0FF"/>
<path d="M154.981 2.64533V20.0676H152.636L152.311 18.1511C151.288 19.5449 149.891 20.2169 148.144 20.2169C146.971 20.2169 145.923 19.968 145.025 19.4453C144.102 18.9227 143.378 18.176 142.879 17.1804C142.355 16.1849 142.106 15.04 142.106 13.696C142.106 12.4018 142.355 11.2818 142.879 10.2862C143.403 9.29067 144.127 8.544 145.05 7.99644C145.948 7.44889 146.996 7.17511 148.144 7.17511C149.068 7.17511 149.891 7.34933 150.59 7.69778C151.288 8.04622 151.837 8.49422 152.287 9.09156V2.64533H154.981ZM151.288 16.7822C151.962 16.0107 152.311 14.9902 152.311 13.7458C152.311 12.4764 151.962 11.456 151.288 10.6596C150.59 9.86311 149.691 9.46489 148.593 9.46489C147.471 9.46489 146.572 9.86311 145.898 10.6596C145.2 11.456 144.875 12.4516 144.875 13.696C144.875 14.9653 145.2 15.9858 145.898 16.7822C146.572 17.5787 147.471 17.952 148.593 17.952C149.691 17.952 150.59 17.5787 151.288 16.7822Z" fill="#EEF0FF"/>
<path d="M90.5076 37.3334V27.3778H91.7482V36.1956H96.2969V37.3334H90.5076Z" fill="#EEF0FF"/>
<path d="M76.4391 27.3778H78.0076L81.5439 35.6409L85.0374 27.3778H86.5774V37.3334H85.3653V29.4827L82.0572 37.3334H80.9593L77.6511 29.4827V37.3334H76.4391V27.3778Z" fill="#EEF0FF"/>
<path d="M65.4045 27.3778H73.1187V28.5156H69.8819V37.3334H68.6413V28.5156H65.4045V27.3778Z" fill="#EEF0FF"/>
<path d="M54.4412 27.3636H55.6818V31.7014H60.8436V27.3636H62.0841V37.3334H60.8436V32.8392H55.6818V37.3334H54.4412V27.3636Z" fill="#EEF0FF"/>
</g>
</svg>
